<?xml version="1.0" encoding="UTF-8" standalone="no"?>
<svg width="32px" height="32px" viewBox="0 0 32 32" version="1.1" xmlns="http://www.w3.org/2000/svg" xmlns:xlink="http://www.w3.org/1999/xlink">
    <g id="Main" stroke="none" stroke-width="1" fill="none" fill-rule="evenodd">
        <g id="Page" transform="translate(-42.000000, -392.000000)" stroke-width="2" stroke="#2E2E2E" fill="#FFFFFF">
            <g id="Group-2" transform="translate(0.000000, 363.000000)">
                <g id="Default-with-Image-Disclosure-Indicator-Table-Cell">
                    <path d="M43,33.0000191 C43,31.3431543 44.3473186,30 46.0000191,30 L69.9999809,30 C71.6568457,30 73,31.3473186 73,33.0000191 L73,56.9999809 C73,58.6568457 71.6526814,60 69.9999809,60 L46.0000191,60 C44.3431543,60 43,58.6526814 43,56.9999809 L43,33.0000191 Z M47,43.4976988 C47,43.2228273 47.2148438,43 47.4976988,43 L51.5023012,43 C51.7771727,43 52,43.2148438 52,43.4976988 L52,47.5023012 C52,47.7771727 51.7851562,48 51.5023012,48 L47.4976988,48 C47.2228273,48 47,47.7851562 47,47.5023012 L47,43.4976988 Z M55,43.4976988 C55,43.2228273 55.2148438,43 55.4976988,43 L59.5023012,43 C59.7771727,43 60,43.2148438 60,43.4976988 L60,47.5023012 C60,47.7771727 59.7851562,48 59.5023012,48 L55.4976988,48 C55.2228273,48 55,47.7851562 55,47.5023012 L55,43.4976988 Z M63,43.4976988 C63,43.2228273 63.2148438,43 63.4976988,43 L67.5023012,43 C67.7771727,43 68,43.2148438 68,43.4976988 L68,47.5023012 C68,47.7771727 67.7851562,48 67.5023012,48 L63.4976988,48 C63.2228273,48 63,47.7851562 63,47.5023012 L63,43.4976988 Z M47,51.4976988 C47,51.2228273 47.2148438,51 47.4976988,51 L51.5023012,51 C51.7771727,51 52,51.2148438 52,51.4976988 L52,55.5023012 C52,55.7771727 51.7851562,56 51.5023012,56 L47.4976988,56 C47.2228273,56 47,55.7851562 47,55.5023012 L47,51.4976988 Z M55,51.4976988 C55,51.2228273 55.2148438,51 55.4976988,51 L59.5023012,51 C59.7771727,51 60,51.2148438 60,51.4976988 L60,55.5023012 C60,55.7771727 59.7851562,56 59.5023012,56 L55.4976988,56 C55.2228273,56 55,55.7851562 55,55.5023012 L55,51.4976988 Z" id="Combined-Shape"></path>
                </g>
            </g>
        </g>
    </g>
</svg>